<svg width="53" height="59" viewBox="0 0 53 59" fill="none" xmlns="http://www.w3.org/2000/svg">
<g clip-path="url(#clip0_1_460)">
<path d="M41.7361 58.7263C41.5957 58.7947 41.4495 58.8509 41.2993 58.8943C41.1408 58.9391 40.9783 58.968 40.814 58.9807C40.6525 58.9954 40.4901 58.9954 40.3287 58.9807C40.1653 58.9687 40.0031 58.9447 39.8434 58.9087C39.6768 58.8654 39.5143 58.8076 39.3581 58.7359C39.2013 58.6655 39.0518 58.5802 38.9116 58.4814C38.7765 58.3813 38.6499 58.2705 38.5331 58.1501C38.4134 58.0221 38.3077 57.8821 38.2176 57.7324L33.811 50.5878L30.0791 54.9091C29.9112 55.107 29.733 55.2961 29.5452 55.4757C29.356 55.6533 29.1667 55.8166 28.9726 55.9558L28.9337 55.9846C28.7477 56.1272 28.5532 56.2587 28.3514 56.3784C28.1584 56.4934 27.9573 56.5945 27.7496 56.6809C27.5927 56.7523 27.4305 56.8117 27.2643 56.8585C27.1057 56.9069 26.9434 56.9422 26.779 56.9641C26.6085 56.9873 26.4366 56.9985 26.2646 56.9977C26.1018 56.9914 25.9396 56.9737 25.7793 56.9449C25.5832 56.908 25.3913 56.8517 25.2066 56.7769C25.0254 56.7048 24.8529 56.613 24.6922 56.5032C24.5315 56.393 24.3819 56.2675 24.2457 56.1287C24.1108 55.9792 23.989 55.8186 23.8817 55.6485L23.8284 55.5525L23.7847 55.4517L23.1586 53.776V53.6944L19.8537 20.7709C19.8219 20.5592 19.8219 20.344 19.8537 20.1324C19.8916 19.9228 19.962 19.7204 20.0624 19.5322C20.2224 19.2333 20.454 18.9778 20.737 18.788C20.872 18.6955 21.0189 18.6212 21.1737 18.5671C21.3302 18.5094 21.4932 18.4707 21.659 18.4518C21.8678 18.4287 22.0788 18.4368 22.2851 18.4759C22.4964 18.5174 22.7007 18.5885 22.8917 18.6871L23.0373 18.7639C29.5938 23.0084 35.7037 26.9552 41.7894 30.8876L51.0102 36.8365C51.178 36.9433 51.34 37.0587 51.4955 37.1822C51.6354 37.2907 51.7683 37.4078 51.8935 37.5327L51.9226 37.5663C52.047 37.6891 52.1622 37.8207 52.2671 37.9601C52.3716 38.091 52.4641 38.2308 52.5438 38.3778C52.644 38.5519 52.7269 38.7352 52.7913 38.9252C52.8535 39.1074 52.8958 39.2957 52.9174 39.4869C52.9393 39.68 52.9393 39.8748 52.9174 40.0679C52.8981 40.2613 52.8607 40.4526 52.8058 40.6393C52.704 40.9625 52.5499 41.2673 52.3496 41.5419C52.2526 41.6835 52.1439 41.8168 52.0245 41.9405C51.9013 42.0718 51.7682 42.1938 51.6265 42.3054C51.4483 42.4508 51.2602 42.5839 51.0636 42.7039C50.8536 42.8284 50.6365 42.9406 50.4133 43.04C50.1852 43.1408 49.928 43.2368 49.7047 43.3185C49.4581 43.4012 49.207 43.4702 48.9525 43.5249C47.6082 43.7842 46.2688 44.1059 44.9391 44.4228L43.3618 44.7925L47.7296 51.9658C47.8191 52.1186 47.8938 52.2793 47.9528 52.446C48.129 52.9416 48.1543 53.4775 48.0256 53.9873V54.0353C47.986 54.1902 47.9324 54.3412 47.8654 54.4866C47.7946 54.6353 47.7118 54.7782 47.6179 54.9139C47.5205 55.0535 47.41 55.1838 47.2879 55.3028C47.1651 55.4215 47.032 55.5291 46.89 55.6245L45.9194 56.2439C44.5769 57.1542 43.1799 57.9832 41.7361 58.7263ZM18.2619 9.34353C18.494 9.78246 18.5457 10.2931 18.4062 10.7689C18.2667 11.2446 17.9468 11.6486 17.5133 11.8965C17.0798 12.1444 16.5663 12.217 16.08 12.0992C15.5937 11.9813 15.1722 11.6821 14.9036 11.2641L11.0212 4.5421C10.8011 4.10479 10.7578 3.60096 10.8999 3.13313C11.0421 2.66531 11.3591 2.26866 11.7864 2.02392C12.2137 1.77919 12.7193 1.70475 13.2001 1.81578C13.6809 1.9268 14.101 2.21493 14.3746 2.62153L18.2862 9.34353H18.2619ZM10.9824 31.7998C11.4244 31.5821 11.9336 31.5392 12.4065 31.6798C12.8793 31.8205 13.2802 32.1341 13.5276 32.5569C13.775 32.9797 13.8502 33.4798 13.738 33.9556C13.6258 34.4313 13.3345 34.8468 12.9236 35.1176L6.12933 38.9876C5.68733 39.2053 5.17807 39.2482 4.70522 39.1076C4.23237 38.9669 3.83146 38.6533 3.58409 38.2305C3.33672 37.8077 3.26149 37.3076 3.37371 36.8318C3.48592 36.3561 3.77715 35.9406 4.18812 35.6698L10.9824 31.7998ZM9.97779 19.1289C10.4552 19.2774 10.8562 19.6026 11.0971 20.0367C11.3379 20.4708 11.4 20.9801 11.2704 21.4584C11.1408 21.9366 10.8295 22.3469 10.4014 22.6035C9.9734 22.8601 9.46172 22.9433 8.97321 22.8356L1.45586 20.819C0.994423 20.6612 0.61003 20.3371 0.379289 19.9114C0.148548 19.4858 0.0884039 18.9897 0.210844 18.5221C0.333285 18.0545 0.629318 17.6497 1.03994 17.3884C1.45057 17.1271 1.94563 17.0285 2.42647 17.1122L9.96323 19.1289H9.97779ZM39.7948 19.7674C39.3528 19.9852 38.8436 20.0281 38.3707 19.8874C37.8979 19.7468 37.497 19.4331 37.2496 19.0104C37.0022 18.5876 36.927 18.0874 37.0392 17.6117C37.1514 17.136 37.4427 16.7204 37.8536 16.4497L44.6479 12.5797C45.0899 12.362 45.5991 12.3191 46.072 12.4597C46.5448 12.6004 46.9458 12.914 47.1931 13.3368C47.4405 13.7596 47.5157 14.2597 47.4035 14.7354C47.2913 15.2112 47.0001 15.6267 46.5891 15.8975L39.7948 19.7674ZM30.7973 9.87649C30.7467 10.1352 30.6428 10.3808 30.4921 10.5981C30.3414 10.8154 30.1472 10.9997 29.9214 11.1395C29.6956 11.2793 29.4432 11.3717 29.1798 11.4108C28.9164 11.45 28.6477 11.4351 28.3904 11.367C28.1331 11.299 27.8926 11.1793 27.6841 11.0154C27.4755 10.8515 27.3033 10.6469 27.1781 10.4143C27.0529 10.1817 26.9774 9.92616 26.9563 9.66347C26.9353 9.40078 26.9691 9.13661 27.0556 8.88739L29.0551 1.44037C29.2146 0.983844 29.5421 0.603538 29.9723 0.375251C30.4026 0.146963 30.904 0.0874593 31.3766 0.208598C31.8492 0.329736 32.2584 0.622621 32.5225 1.02888C32.7866 1.43514 32.8862 1.92494 32.8016 2.40066L30.7973 9.87649ZM40.5859 56.1431L45.2788 53.3295C43.6384 50.631 40.9838 46.8235 39.6929 44.1251C39.6684 44.0693 39.649 44.0114 39.6347 43.9523C39.5666 43.6543 39.6208 43.3417 39.7855 43.0833C39.9503 42.8249 40.212 42.6418 40.5131 42.5742C43.124 41.9837 45.7932 41.4267 48.3847 40.7833C48.6839 40.7172 48.9763 40.624 49.2583 40.5048C49.4832 40.4079 49.6951 40.2837 49.8892 40.1351C49.9554 40.0792 50.0171 40.0182 50.0736 39.9527C50.1021 39.918 50.125 39.8791 50.1415 39.8374L50.1124 39.751C50.0555 39.6554 49.9834 39.5694 49.8989 39.4965C49.7741 39.3838 49.6393 39.2826 49.4961 39.194L22.8383 21.9665C23.8623 32.2224 25.3619 43.1408 25.9685 53.3246C25.9845 53.4868 26.0137 53.6473 26.0559 53.8048C26.0861 53.9085 26.1285 54.0084 26.1821 54.1025L26.2452 54.1697C26.2918 54.1765 26.3392 54.1765 26.3859 54.1697C26.4709 54.1505 26.5538 54.1232 26.6334 54.0881C26.8565 53.9893 27.0653 53.8618 27.2546 53.7088C27.4908 53.5146 27.71 53.3009 27.9098 53.0702C28.8464 51.9803 32.5687 47.2412 33.4422 46.7419C33.7064 46.5865 34.0219 46.5406 34.3201 46.6144C34.6182 46.6881 34.8749 46.8755 35.034 47.1356L40.5859 56.1383V56.1431Z" fill="#346D52"/>
</g>
<defs>
<clipPath id="clip0_1_460">
<rect width="53" height="59" fill="white"/>
</clipPath>
</defs>
</svg>
