<svg width="63" height="65" viewBox="0 0 63 65" fill="none" xmlns="http://www.w3.org/2000/svg">
<path fill-rule="evenodd" clip-rule="evenodd" d="M47.9584 35.3907C48.3132 35.39 48.6647 35.4586 48.9926 35.5926C49.3206 35.7266 49.6185 35.9233 49.8694 36.1714C50.1203 36.4196 50.3192 36.7143 50.4547 37.0387C50.5901 37.363 50.6595 37.7107 50.6588 38.0616C50.6595 38.4126 50.5902 38.7602 50.4547 39.0846C50.3192 39.409 50.1204 39.7037 49.8695 39.9519C49.6186 40.2001 49.3206 40.3968 48.9926 40.5308C48.6647 40.6647 48.3132 40.7334 47.9584 40.7327C46.4696 40.7327 45.2631 39.5392 45.2631 38.0667C45.2631 36.5939 46.4666 35.3907 47.9584 35.3907ZM31.9977 11.6478C31.9541 11.1617 31.757 10.7872 31.4063 10.5147C31.1633 10.3264 30.8468 10.203 30.4579 10.1459V12.9662L31.1653 13.1247C31.8384 13.2702 32.436 13.4621 32.9557 13.7037C33.4723 13.9452 33.9071 14.2362 34.2608 14.5704C34.6147 14.9017 34.8837 15.2888 35.0652 15.7222C35.2468 16.1588 35.3407 16.6478 35.3469 17.1864C35.3407 18.0409 35.1217 18.7715 34.6927 19.3846C34.2608 19.9945 33.6411 20.465 32.8338 20.79C32.1596 21.0625 31.3673 21.2199 30.4579 21.2637V22.7931H29.3625V21.2628C28.4494 21.2162 27.6387 21.0529 26.9304 20.7685C26.0792 20.431 25.4188 19.9171 24.9493 19.2268C24.4766 18.5364 24.2355 17.6634 24.2229 16.6077H27.3843C27.4092 17.041 27.5283 17.4064 27.7348 17.6943C27.9446 17.9854 28.2326 18.205 28.5987 18.3538C28.8312 18.4492 29.0857 18.514 29.3625 18.5489V15.5727L28.3827 15.3475C27.1997 15.0783 26.2701 14.6449 25.5878 14.0442C24.9085 13.4436 24.5707 12.6323 24.5737 11.6077C24.5707 10.7717 24.799 10.0381 25.2561 9.40965C25.713 8.78105 26.345 8.29205 27.1558 7.9391C27.8174 7.65355 28.5517 7.48335 29.3625 7.43056V5.90797H30.4579V7.42815C31.2936 7.47853 32.0352 7.65012 32.6802 7.94202C33.4626 8.29814 34.0667 8.79361 34.4989 9.4311C34.9306 10.0691 35.1496 10.8057 35.1591 11.6478H31.9977ZM29.3625 10.1459C29.1714 10.1733 29 10.2158 28.8493 10.2732C28.5643 10.3847 28.3514 10.5365 28.2104 10.7252C28.0668 10.9173 27.9946 11.1372 27.9884 11.3816C27.982 11.5861 28.0228 11.7626 28.1138 11.9172C28.2044 12.0722 28.3388 12.2052 28.5142 12.3227C28.6896 12.4406 28.9024 12.5427 29.1496 12.6292C29.2184 12.6532 29.2894 12.6763 29.3625 12.6989V10.1459ZM30.4579 18.5406C30.6615 18.5109 30.847 18.4641 31.015 18.4C31.3279 18.2825 31.569 18.1184 31.7379 17.9079C31.9071 17.6943 31.9948 17.4528 31.9977 17.1803C31.9948 16.9264 31.9133 16.7068 31.757 16.5239C31.6003 16.3413 31.3623 16.1834 31.0401 16.0503C30.8704 15.9786 30.6763 15.9106 30.4579 15.8453V18.5406ZM4.07602 42.2234C2.07862 41.1134 0.928456 39.3946 0.383141 37.4378C-0.309859 34.9518 0.0051407 32.0889 0.785776 29.6698C0.871625 29.4021 1.06147 29.179 1.31356 29.0497C1.56565 28.9203 1.85935 28.8953 2.13008 28.9802L3.65131 29.4608C4.21498 29.6397 4.52523 30.2371 4.34444 30.7947C3.84262 32.3422 3.5393 34.2263 3.84763 35.8825C3.94951 36.4304 4.12106 36.9529 4.37896 37.4265C4.85319 35.3114 5.77137 33.2548 7.1004 31.3167C8.69516 28.9661 10.5998 27.0628 12.7255 25.5432C14.1582 24.5193 15.6889 23.6714 17.2914 22.9799C15.7234 20.6384 14.8101 17.8306 14.8101 14.8119C14.8101 10.7219 16.4864 7.01872 19.1961 4.3383C21.906 1.658 25.65 0 29.7849 0C33.9198 0 37.6636 1.658 40.3735 4.33843C43.0833 7.01872 44.7595 10.7219 44.7595 14.8119C44.7595 16.3145 44.5329 17.7649 44.1122 19.1316C44.1693 19.1111 44.2264 19.091 44.2839 19.072C45.3889 18.6979 47.9435 18.6759 49.163 18.6513C50.1624 18.6293 51.189 18.6447 52.1839 18.7438C52.7377 18.7991 53.2154 18.8768 53.5702 18.9772C54.5982 19.2682 54.974 19.96 55.0909 20.9503C55.2345 22.1608 54.6775 23.2014 53.8745 24.0742C53.1783 24.8308 52.3057 25.4459 51.6095 25.9177C51.2433 26.1656 50.8886 26.4062 50.612 26.6232L50.9159 26.8111C52.5292 27.7837 54.1579 29.3293 55.4726 31.0746C56.7483 32.7683 57.7423 34.6711 58.158 36.4478L58.1698 36.5074C58.2184 36.7879 58.2775 37.0782 58.3706 37.3475L58.5085 37.3484C58.6202 37.3465 58.8248 37.33 59 37.3157C59.0975 37.3071 59.1952 37.3009 59.293 37.2971C59.9439 37.2509 60.4526 37.2176 61.04 37.5097L61.1114 37.549C61.6435 37.8391 62.0664 38.3535 62.4422 39.3065L62.4627 39.3631C62.8908 40.4857 63.0429 41.9869 62.9899 43.4873C62.932 45.1248 62.633 46.7939 62.1869 47.9775C61.8583 49.411 61.0944 50.2004 60.0801 50.6379C59.1603 51.0348 58.1174 51.086 57.0362 51.086C56.7259 51.086 56.3049 51.0718 55.9585 51.0603L55.8561 51.0569C55.8184 51.112 55.7791 51.1662 55.7385 51.2193C55.1045 52.0134 54.3697 52.7783 53.6088 53.4951C52.8426 54.2171 52.062 54.8837 51.3337 55.4814L51.2748 55.5261L51.1197 55.652C51.174 55.7712 51.237 55.9114 51.3088 56.0824L51.5261 56.6059C51.7905 57.2396 52.0551 57.8733 52.342 58.5231L52.3639 58.5771C52.6417 59.2104 52.9943 59.9888 53.2209 60.4896L53.4023 60.8918C53.6666 61.4921 53.7645 62.0399 53.7263 62.5263C53.6877 63.0195 53.5155 63.4473 53.236 63.8056C52.9697 64.1469 52.6151 64.409 52.1945 64.5898C51.6472 64.8251 50.9852 64.923 50.2735 64.8759H46.1146C44.9204 64.9388 43.9811 64.5342 43.2296 63.8717C42.5363 63.2604 42.0323 62.4358 41.6453 61.5809L41.6371 61.5629C41.464 61.1874 41.2964 60.8092 41.0917 60.4492L40.8793 60.5251C40.666 60.6023 40.4518 60.6773 40.2369 60.7502C34.1864 62.7873 28.7062 62.5061 22.6469 60.7048C22.3939 60.6901 22.3035 60.8453 22.1854 61.0874C22.1595 61.1452 21.9329 61.6273 21.9366 61.6287C21.2228 63.18 20.5526 64.6363 18.3574 64.9873C18.2881 64.9982 18.2179 65.002 18.1479 64.9988L13.766 64.9671C13.3325 64.9638 12.7645 64.9929 12.3307 64.931C11.5149 64.8139 10.783 64.3862 10.3393 63.6595C10.0727 63.2231 9.93168 62.7122 9.93168 62.1743C9.93168 61.7863 10.0071 61.3799 10.1641 60.9756C10.2029 60.8767 10.2447 60.779 10.2893 60.6826C10.6538 59.884 11.0435 59.0524 11.4325 58.2214L12.2273 56.5197L12.4721 56.0046C12.5265 55.8857 12.5398 55.8162 12.455 55.7231C12.3884 55.6504 12.3067 55.602 12.2298 55.5454C7.90067 52.378 4.59439 47.5555 4.07602 42.2234ZM6.10806 39.5854C6.1155 39.6461 6.11781 39.7076 6.11473 39.769L6.09061 41.5265C6.09017 41.5632 6.08791 41.5998 6.08381 41.6363C6.41061 46.5141 9.43525 50.944 13.3477 53.8439C13.4886 53.9482 13.6269 54.0495 13.7667 54.1565C14.8602 54.9944 14.9382 55.441 14.5978 56.2655C14.4617 56.5952 14.2927 56.9344 14.1352 57.2579C13.7067 58.1859 13.5061 58.6129 13.2924 59.0699C12.902 59.9031 12.5113 60.7367 12.1137 61.6099C11.8766 62.1245 11.9438 62.6645 12.3924 62.859C12.6143 62.9548 12.9187 62.9389 13.1591 62.9407L18.1063 62.9766C19.1561 62.7713 19.5985 61.8103 20.0688 60.7882C20.2122 60.484 20.3522 60.184 20.5049 59.8846C20.8294 59.2493 21.154 58.8029 21.8971 58.6846C22.4547 58.5959 22.8977 58.6708 23.4228 58.824C29.0043 60.4539 34.0149 60.705 39.5797 58.8311C40.1845 58.627 41.149 58.1365 41.7204 58.3213C41.9851 58.4069 42.2276 58.5886 42.4507 58.8431C42.6599 59.0817 42.854 59.4012 43.0345 59.7484V59.7525C43.2226 60.115 43.3684 60.4346 43.5035 60.731C43.4995 60.7326 43.5116 60.7528 43.5131 60.7564C43.7943 61.3774 44.1432 61.9613 44.5922 62.3573C44.9587 62.6801 45.4161 62.8789 45.9954 62.8529C46.0348 62.8483 46.0744 62.846 46.1141 62.846H50.2935L50.3697 62.8499C50.7792 62.8814 51.127 62.8417 51.3768 62.7343C51.485 62.6879 51.5672 62.6319 51.6166 62.5687C51.6526 62.5225 51.6757 62.4582 51.6822 62.3755C51.6958 62.2014 51.6486 61.9772 51.527 61.7006L51.3531 61.3142C51.1519 60.8693 50.8382 60.1769 50.4894 59.3813L50.4662 59.3319C50.1864 58.6982 49.91 58.0364 49.634 57.3753L49.4168 56.8592C49.3415 56.6799 49.2713 56.5271 49.2137 56.4009C48.993 55.9187 48.8761 55.6632 48.9545 55.2269C49.0481 54.7014 49.2906 54.5081 49.8045 54.0971L49.8062 54.099L49.9812 53.959L50.0269 53.9193C50.7423 53.3323 51.4951 52.6906 52.198 52.0281C52.6177 51.6328 53.0245 51.2269 53.4022 50.817C53.6564 50.542 53.9009 50.2583 54.1351 49.9664C54.78 49.0308 54.6808 48.9967 55.7941 49.0308L56.0228 49.0384C56.2622 49.0463 56.5548 49.0563 57.0362 49.0563C57.8944 49.0563 58.7006 49.0248 59.2622 48.7824C59.6976 48.5947 60.0327 48.224 60.1929 47.5201C60.2039 47.4522 60.222 47.3843 60.2476 47.3173C60.6341 46.3178 60.8948 44.8646 60.9458 43.4237C60.9798 42.4602 60.9213 41.5176 60.7459 40.7427C60.6744 40.4277 60.3921 39.4954 60.141 39.3286L60.1182 39.3176C59.9897 39.2537 59.1179 39.3433 58.8969 39.3575C58.5071 39.3825 58.1083 39.3869 57.7414 39.3033C57.0544 39.1466 56.7407 38.7713 56.4948 38.1574C56.3291 37.7443 56.2307 37.3088 56.1552 36.8715C55.8009 35.3826 54.9402 33.7549 53.8293 32.2799C52.6666 30.7363 51.2434 29.3801 49.8497 28.5396C49.6784 28.4365 49.5088 28.3306 49.3411 28.2219C48.9352 27.957 48.3868 27.5925 48.2633 27.107C48.0752 26.4326 48.408 25.847 49.0244 25.297C49.4072 24.9553 49.9204 24.6068 50.4552 24.2446C51.0582 23.836 51.8094 23.3081 52.3594 22.7105C52.803 22.2282 53.1165 21.7005 53.0549 21.1804C53.0444 21.0934 53.0251 21.0077 52.9974 20.9244C52.912 20.9011 52.8258 20.881 52.7388 20.8641C52.5249 20.8218 52.2691 20.7861 51.9834 20.7578C51.0673 20.6662 50.123 20.653 49.203 20.6733C48.406 20.6891 46.4125 20.7135 45.3633 20.8916C44.8089 20.9855 44.3337 21.2129 43.8375 21.4803C43.5263 21.6481 43.1832 21.8559 42.8445 22.0641C42.173 23.2441 41.3416 24.3279 40.3735 25.2853C39.1756 26.4707 37.7835 27.4469 36.2561 28.1726C37.4597 28.4186 38.6651 28.7279 39.8714 29.0981C40.7661 29.37 41.2685 30.3081 40.9936 31.193C40.7188 32.0779 39.7703 32.5749 38.8758 32.3029C35.7749 31.3514 32.7075 30.841 29.6852 30.824C26.6722 30.8071 23.6894 31.2765 20.7472 32.2831C19.8636 32.5841 18.9004 32.1195 18.5962 31.2456C18.292 30.3715 18.7616 29.4188 19.6452 29.1179C20.8166 28.7166 22.0117 28.3866 23.2238 28.1295C21.4599 27.277 19.8821 26.0907 18.5796 24.6378C16.9334 25.308 15.3689 26.149 13.9198 27.1847C11.9875 28.566 10.2539 30.2993 8.79884 32.4417L8.79486 32.4458C7.25065 34.6962 6.33311 37.1161 6.10806 39.5854ZM29.7849 1.89089C36.9994 1.89089 42.8478 7.67576 42.8478 14.8119C42.8478 21.9479 36.9994 27.7327 29.7849 27.7327C22.5703 27.7327 16.7218 21.9479 16.7218 14.8119C16.7218 7.67576 22.5703 1.89089 29.7849 1.89089Z" fill="#346D52"/>
</svg>
